<svg height="512pt" viewBox="0 -78 512 512" width="512pt" xmlns="http://www.w3.org/2000/svg"><path d="m458.832031 301.5c-68.621093 0-202.832031-20.058594-202.832031-44.800781 0-24.742188 134.210938-44.800781 202.832031-44.800781 0 0 45.667969 2.570312 45.667969 44.800781 0 42.234375-45.667969 44.800781-45.667969 44.800781zm0 0" fill="#ff4081"/><path d="m458.832031 211.898438c-7.53125 0-15.847656.242187-24.695312.707031 12.035156 2.175781 40.363281 10.828125 40.363281 44.09375s-28.328125 41.917969-40.363281 44.097656c8.84375.460937 17.164062.703125 24.695312.703125 0 0 45.667969-2.566406 45.667969-44.800781 0-42.230469-45.667969-44.800781-45.667969-44.800781zm0 0" fill="#ed3e79"/><path d="m53.167969 211.898438c68.621093 0 202.832031 20.058593 202.832031 44.800781 0 24.742187-134.210938 44.800781-202.832031 44.800781 0 0-45.667969-2.566406-45.667969-44.800781 0-42.230469 45.667969-44.800781 45.667969-44.800781zm0 0" fill="#ff4081"/><path d="m91.390625 256.699219c0-9.941407-12.984375-18-29-18s-29 8.058593-29 18c0 9.941406 12.984375 18 29 18s29-8.058594 29-18zm0 0" fill="#ffb300"/><path d="m453.992188 193.796875c-59.425782 34.40625-185.65625 84.332031-197.992188 62.902344-12.335938-21.425781 93.890625-106.089844 153.320312-140.5 0 0 40.828126-20.671875 61.886719 15.902343 21.058594 36.574219-17.214843 61.695313-17.214843 61.695313zm0 0" fill="#29b6f6"/><path d="m471.207031 132.101562c-14.664062-25.46875-38.910156-23.175781-52.285156-19.4375 8.113281 2.820313 16.0625 8.625 22.285156 19.4375 21.058594 36.574219-17.214843 61.695313-17.214843 61.695313-42.71875 24.734375-119.960938 57.484375-164.597657 65.988281 23.773438 12.433594 138.714844-33.632812 194.597657-65.988281 0 0 38.273437-25.121094 17.214843-61.695313zm0 0" fill="#03a9f4"/><path d="m102.679688 116.199219c59.429687 34.410156 165.65625 119.074219 153.320312 140.5-12.335938 21.429687-138.566406-28.496094-197.992188-62.902344 0 0-38.273437-25.121094-17.214843-61.695313 21.054687-36.574218 61.886719-15.902343 61.886719-15.902343zm0 0" fill="#29b6f6"/><g fill="#ffb300"><path d="m101.273438 147.480469c-13.394532-8.789063-28.667969-9.171875-34.125-.859375-5.453126 8.308594.984374 22.171875 14.375 30.957031 13.390624 8.785156 28.667968 9.171875 34.121093.859375s-.980469-22.171875-14.371093-30.957031zm0 0"/><path d="m444.863281 146.65625c-5.453125-8.3125-20.730469-7.925781-34.121093.859375-13.390626 8.785156-19.824219 22.648437-14.371094 30.960937 5.453125 8.308594 20.730468 7.925782 34.121094-.859374 13.390624-8.789063 19.824218-22.648438 14.371093-30.960938zm0 0"/><path d="m478.609375 256.699219c0-9.941407-12.984375-18-29-18s-29 8.058593-29 18c0 9.941406 12.984375 18 29 18s29-8.058594 29-18zm0 0"/></g><path d="m396.105469 102.949219c-34.3125 59.59375-118.738281 166.121093-140.105469 153.75-21.367188-12.371094 28.414062-138.957031 62.726562-198.550781 0 0 25.050782-38.378907 61.523438-17.261719 36.472656 21.117187 15.855469 62.0625 15.855469 62.0625zm0 0" fill="#ff4081"/><path d="m380.25 40.886719c-14.28125-8.269531-26.8125-7.414063-36.773438-3.3125 2.210938.882812 4.46875 1.976562 6.773438 3.3125 36.472656 21.117187 15.855469 62.0625 15.855469 62.0625-25.96875 45.105469-80.640625 117.082031-114.957031 144.058593.613281 4.789063 2.171874 8.140626 4.851562 9.691407 21.367188 12.371093 105.792969-94.15625 140.105469-153.75 0 0 20.617187-40.945313-15.855469-62.0625zm0 0" fill="#ed3e79"/><path d="m193.273438 58.148438c34.3125 59.59375 84.09375 186.179687 62.726562 198.550781-21.367188 12.371093-105.792969-94.15625-140.105469-153.75 0 0-20.617187-40.945313 15.855469-62.0625 36.472656-21.117188 61.523438 17.261719 61.523438 17.261719zm0 0" fill="#ff4081"/><path d="m179.558594 85.320312c-8.007813-13.867187-21.480469-21.082031-30.085938-16.113281-8.609375 4.972657-9.097656 20.246094-1.089844 34.113281 8.007813 13.871094 21.480469 21.085938 30.089844 16.113282 8.605469-4.96875 9.09375-20.242188 1.085938-34.113282zm0 0" fill="#ffb300"/><path d="m362.519531 69.222656c-8.609375-4.972656-22.078125 2.242188-30.085937 16.113282-8.007813 13.867187-7.523438 29.140624 1.085937 34.113281 8.609375 4.96875 22.082031-2.246094 30.089844-16.113281 8.007813-13.871094 7.519531-29.144532-1.089844-34.113282zm0 0" fill="#ffb300"/><path d="m300.675781 53.296875c0 68.816406-20.003906 203.402344-44.675781 203.402344s-44.675781-134.585938-44.675781-203.402344c0 0 2.5625-45.796875 44.675781-45.796875s44.675781 45.796875 44.675781 45.796875zm0 0" fill="#29b6f6"/><path d="m256 7.5c-5.695312 0-10.660156.84375-15 2.289062 27.753906 9.265626 29.675781 43.507813 29.675781 43.507813 0 54.136719-12.382812 148.96875-29.675781 186.964844 4.6875 10.300781 9.738281 16.4375 15 16.4375 24.671875 0 44.675781-134.585938 44.675781-203.402344 0 0-2.5625-45.796875-44.675781-45.796875zm0 0" fill="#03a9f4"/><path d="m274 75.5c0-16.015625-8.058594-29-18-29s-18 12.984375-18 29 8.058594 29 18 29 18-12.984375 18-29zm0 0" fill="#ffb300"/><path d="m317 293.503906c0 29.816406-27.308594 53.996094-61 53.996094s-61-24.179688-61-53.996094c0-15.539062 7.417969-29.546875 19.285156-39.398437 15.769532-13.085938 24.953125-32.472657 26.054688-52.929688l3.910156-72.644531c.179688-3.371094 5.4375-6.03125 11.75-6.03125 3.160156 0 6.050781.671875 8.167969 1.75 2.132812 1.089844 3.492187 2.601562 3.582031 4.28125l3.910156 72.644531c1.101563 20.457031 10.285156 39.84375 26.050782 52.929688 11.871093 9.855469 19.289062 23.859375 19.289062 39.398437zm0 0" fill="#6c838c"/><path d="m297.714844 254.105469c-15.765625-13.085938-24.953125-32.472657-26.054688-52.929688l-3.910156-72.644531c-.089844-1.679688-1.449219-3.191406-3.578125-4.28125-2.121094-1.078125-5.011719-1.75-8.171875-1.75-6.308594 0-11.570312 2.660156-11.75 6.03125l-3.25 60.375.660156 12.269531c1.101563 20.457031 10.285156 39.84375 26.050782 52.929688 11.871093 9.855469 19.289062 23.859375 19.289062 39.398437 0 25.234375-19.5625 46.425782-46 52.34375 4.800781 1.078125 9.824219 1.652344 15 1.652344 33.691406 0 61-24.179688 61-54 0-15.535156-7.417969-29.539062-19.285156-39.394531zm0 0" fill="#61747d"/><path d="m277 135.023438c0 18.515624-16.347656 46.476562-21 46.476562s-21-27.960938-21-46.476562c0-18.515626 9.402344-33.523438 21-33.523438s21 15.007812 21 33.523438zm0 0" fill="#6c838c"/><path d="m256 142.148438c-6.765625 0-12.78125 5.117187-16.621094 13.050781 5.183594 13.808593 13.511719 26.300781 16.621094 26.300781s11.4375-12.492188 16.621094-26.300781c-3.839844-7.933594-9.855469-13.050781-16.621094-13.050781zm0 0" fill="#fff7e6"/><path d="m485.117188 211.804688c-12.695313-6.582032-25.335938-7.363282-25.867188-7.394532-.140625-.007812-.277344-.011718-.421875-.011718-2.730469 0-5.582031.035156-8.535156.097656 2.597656-1.429688 5.085937-2.835938 7.453125-4.207032.125-.070312.242187-.144531.359375-.21875.445312-.292968 10.996093-7.304687 18.707031-19.367187 7.445312-11.652344 13.648438-30.191406.898438-52.347656-12.765626-22.164063-31.886719-26.054688-45.691407-25.410157-14.28125.660157-25.609375 6.324219-26.085937 6.5625-.125.0625-.25.132813-.371094.203126-2.351562 1.359374-4.792969 2.808593-7.308594 4.339843 1.53125-2.535156 2.984375-4.992187 4.347656-7.359375.066407-.121094.132813-.246094.195313-.371094.242187-.476562 5.882813-11.828124 6.546875-26.136718.640625-13.828125-3.234375-32.992188-25.335938-45.785156-22.109374-12.804688-40.617187-6.585938-52.25.890624-12.03125 7.734376-19.015624 18.3125-19.308593 18.761719-.078125.117188-.148438.234375-.21875.355469-1.355469 2.355469-2.742188 4.828125-4.15625 7.40625.0625-2.949219.097656-5.792969.097656-8.515625 0-.140625-.007813-.277344-.015625-.417969-.027344-.53125-.804688-13.191406-7.363281-25.917968-6.34375-12.300782-19.261719-26.960938-44.792969-26.960938s-38.449219 14.660156-44.792969 26.964844c-6.5625 12.722656-7.335937 25.382812-7.363281 25.917968-.007812.136719-.015625.277344-.015625.417969 0 2.722657.03125 5.5625.097656 8.511719-1.414062-2.574219-2.800781-5.046875-4.15625-7.402344-.070312-.125-.140625-.242187-.21875-.359375-.292969-.445312-7.277343-11.027343-19.308593-18.761719-11.632813-7.472656-30.140626-13.695312-52.25-.890624-22.101563 12.792968-25.976563 31.957031-25.335938 45.785156.664062 14.308594 6.304688 25.664062 6.546875 26.140625.0625.125.128906.246093.195313.367187 1.363281 2.367188 2.816406 4.824219 4.347656 7.359375-2.515625-1.53125-4.957032-2.980469-7.308594-4.339843-.121094-.070313-.246094-.140626-.371094-.203126-.476562-.238281-11.804687-5.898437-26.085937-6.5625-13.820313-.640624-32.925781 3.25-45.691407 25.414063-12.75 22.152344-6.550781 40.691406.898438 52.34375 7.710938 12.066406 18.257812 19.074219 18.703125 19.367187.121094.078126.238281.148438.359375.21875 2.367188 1.371094 4.859375 2.777344 7.453125 4.207032-2.953125-.0625-5.804687-.09375-8.535156-.09375-.140625 0-.28125.003906-.421875.011718-.53125.027344-13.167969.808594-25.863282 7.394532-12.265624 6.355468-26.882812 19.308594-26.882812 44.890625s14.617188 38.535156 26.882812 44.894531c9.332032 4.839844 21.410157 7.40625 26.289063 7.40625 37.761719 0 92.511719-5.941406 134.339844-14.398438.066406 3.359376.433593 6.714844 1.097656 9.992188.816406 4.027344 4.746094 6.6875 8.84375 5.859375 4.058594-.820313 6.683594-4.777344 5.859375-8.839844-.539062-2.660156-.8125-5.390625-.8125-8.113281 0-13.191406 6.210938-25.015625 16.582031-33.621094 17.792969-14.78125 27.570313-36.40625 28.746094-58.308594l.847656-15.808593c4.816407 4.335937 9.710938 4.441406 14.644531 0l.847657 15.808593c1.171875 21.796876 10.882812 43.46875 28.75 58.3125 10.320312 8.566407 16.578125 20.371094 16.578125 33.617188 0 25.640625-24 46.5-53.5 46.5-14.835938 0-29.140625-5.4375-39.246094-14.921875-3.019531-2.835937-7.769531-2.683594-10.601562.335937-2.832032 3.023438-2.683594 7.769532.339843 10.601563 13.046875 12.242187 30.628907 18.984375 49.511719 18.984375 37.359375 0 67.828125-26.992188 68.488281-60.394531 27.496094 5.582031 59.40625 9.53125 61.429688 9.53125 3.75 0 6.992187-2.8125 7.4375-6.628907.480469-4.117187-2.464844-7.839843-6.578125-8.320312-23.125-2.707031-45.222656-6.253906-64.253906-10.3125-1.6875-6.171875-4.433594-12.078125-8.121094-17.492188 29.347656-8.453124 67.507812-23.285156 103.039062-40.167968 15.101563-1.179688 29.285156-1.808594 41.125-1.816406 1.308594.109374 10.59375 1.027343 19.644532 5.722656 12.46875 6.464844 18.789062 17.089844 18.789062 31.578125 0 33.679687-35.277344 37.066406-38.417969 37.300781-11.535156-.007812-25.394531-.605469-40.101562-1.734375-4.117188-.3125-7.734375 2.773437-8.050781 6.90625-.316407 4.128906 2.773437 7.734375 6.90625 8.050781 10.09375.773438 34.761718 2.164063 41.914062 1.765625.53125-.027343 13.167969-.808593 25.867188-7.394531 12.265624-6.359375 26.882812-19.3125 26.882812-44.894531s-14.617188-38.535157-26.882812-44.894531zm-72.269532-88.980469c1.1875-.5625 9.6875-4.421875 19.867188-4.894531 14.011718-.652344 24.777344 5.375 31.996094 17.910156 16.792968 29.175781-12.09375 49.816406-14.695313 51.59375-10.507813 6.074218-23.515625 12.84375-37.640625 19.582031-.089844.039063-.175781.082031-.261719.125-38.140625 18.195313-79.371093 33.992187-108.921875 41.78125-1.832031-1.566406-3.476562-2.878906-6.15625-5.710937 23.0625-21.503907 54.070313-58.976563 81.089844-98.183594 12.523438-8.613282 24.5-16.273438 34.722656-22.203125zm-87.742187-60.714844c1.835937-2.707031 22.371093-31.53125 51.386719-14.726563 29.089843 16.835938 14.351562 49.203126 12.984374 52.039063-6.066406 10.523437-13.957031 22.90625-22.835937 35.839844-.0625.085937-.121094.171875-.179687.257812-26.171876 38.097657-56.089844 74.472657-78.417969 95.566407-1.203125-2.097657-2.296875-4.261719-3.269531-6.488282 11.074218-35.832031 18.230468-87.898437 21.320312-125.832031 6.539062-13.714844 13.09375-26.359375 19.011719-36.65625zm-100.566407-28.273437c6.445313-12.496094 17.03125-18.835938 31.460938-18.835938 33.566406 0 36.9375 35.40625 37.171875 38.546875-.011719 12.160156-.667969 26.847656-1.90625 42.511719-.007813.089844-.015625.183594-.023437.273437-2.554688 32.054688-7.195313 64.871094-12.773438 91.722657l-1.300781-24.191407c3.167969-7.136719 7.332031-18.5 7.332031-28.839843 0-13.460938-4.289062-25.21875-11.050781-32.65625 5.054687-6.722657 8.050781-16.351563 8.050781-26.867188 0-20.464844-11.199219-36.5-25.5-36.5s-25.5 16.035156-25.5 36.5c0 10.519531 2.996094 20.144531 8.050781 26.867188-6.761719 7.4375-11.050781 19.195312-11.050781 32.65625 0 10.339843 4.167969 21.703124 7.332031 28.839843l-1.300781 24.191407c-5.578125-26.851563-10.21875-59.660157-12.773438-91.714844-.007812-.097656-.015624-.191406-.023437-.289063-1.238281-15.652343-1.894531-30.332031-1.90625-42.488281.109375-1.308594 1.023437-10.636719 5.710937-19.726562zm20.960938 41.664062c0-13.125 6.21875-21.5 10.5-21.5s10.5 8.375 10.5 21.5c0 8.65625-2.746094 15.503906-5.972656 18.992188-1.472656-.324219-2.984375-.492188-4.527344-.492188s-3.054688.167969-4.527344.492188c-3.226562-3.488282-5.972656-10.335938-5.972656-18.992188zm-3 59.523438c0-14.894532 7.128906-26.023438 13.5-26.023438s13.5 11.128906 13.5 26.023438c0 1.320312-.101562 2.703124-.285156 4.121093-8.011719-5.890625-18.125-6.105469-26.429688 0-.183594-1.417969-.285156-2.800781-.285156-4.121093zm-194.675781 37.601562c-7.578125-11.859375-7.757813-24.234375-.535157-36.78125 16.78125-29.144531 49.011719-14.402344 51.847657-13.027344 10.226562 5.929688 22.210937 13.59375 34.738281 22.214844 4.636719 6.722656 9.507812 13.5625 14.496094 20.347656 2.464844 3.351563 7.164062 4.042969 10.484375 1.597656 3.339843-2.453124 4.054687-7.148437 1.601562-10.484374-5.148437-7-10.167969-14.058594-14.925781-20.980469-.050781-.082031-.105469-.160157-.164062-.238281-8.878907-12.933594-16.773438-25.320313-22.839844-35.84375-1.417969-2.949219-16.058594-35.238282 12.980468-52.046876 29.058594-16.832031 49.617188 12.121094 51.386719 14.726563 5.914063 10.292969 12.472657 22.941406 19.011719 36.660156 3.089844 37.929688 10.246094 90 21.320312 125.828125-.976562 2.230469-2.066406 4.398438-3.273437 6.496094-12.773437-12.042969-27.90625-28.941406-44.230469-49.421875-2.582031-3.238281-7.300781-3.769531-10.539062-1.1875-3.238282 2.582031-3.769532 7.300781-1.191406 10.539063 12.371093 15.519531 30.042968 36.464843 46.96875 52.195312-2.589844 2.742188-4.410157 4.222656-6.152344 5.707031-29.546875-7.789062-70.78125-23.585937-108.925782-41.78125-.082031-.042969-.167968-.085937-.253906-.125-14.117187-6.734375-27.121094-13.5-37.632812-19.574219-1.078125-.753906-8.667969-6.210937-14.171875-14.820312zm-32.824219 84.074219c0-33.675781 35.277344-37.066407 38.417969-37.300781 11.84375.011718 26.03125.636718 41.136719 1.816406 35.535156 16.882812 73.695312 31.71875 103.042968 40.167968-3.6875 5.414063-6.433594 11.320313-8.121094 17.492188-41.367187 8.804688-97.652343 15.097656-136.054687 15.125-3.265625-.246094-38.421875-3.679688-38.421875-37.300781zm232.648438-100.964844c5.167968-8.066406 11.523437-8.089844 16.703124 0-2.664062 6.339844-5.871093 12.082031-8.351562 15.640625-2.480469-3.558594-5.6875-9.300781-8.351562-15.640625zm0 0"/><path d="m62.390625 231.199219c-20.46875 0-36.5 11.203125-36.5 25.5 0 14.300781 16.03125 25.5 36.5 25.5s36.5-11.199219 36.5-25.5c0-14.296875-16.03125-25.5-36.5-25.5zm0 36c-13.125 0-21.5-6.21875-21.5-10.5s8.375-10.5 21.5-10.5 21.5 6.21875 21.5 10.5-8.375 10.5-21.5 10.5zm0 0"/><path d="m77.398438 183.859375c14.097656 9.25 35.328124 12.695313 44.507812-1.292969 7.847656-11.957031.585938-30.117187-16.523438-41.34375-7.628906-5.007812-16.140624-7.875-23.964843-8.070312-8.988281-.242188-16.488281 3.1875-20.542969 9.363281-9.078125 13.835937 2.152344 31.914063 16.523438 41.34375zm-3.984376-33.113281c1.433594-2.183594 5.015626-2.675782 7.625-2.597656 4.992188.125 10.867188 2.171874 16.113282 5.613281 10.972656 7.199219 14.5625 16.996093 12.214844 20.574219-1.144532 1.742187-3.917969 2.714843-7.625 2.597656-4.992188-.125-10.863282-2.171875-16.109376-5.613282-5.25-3.441406-9.464843-8.015624-11.566406-12.546874-1.558594-3.359376-1.796875-6.285157-.652344-8.027344zm0 0"/><path d="m390.09375 182.566406c9.050781 13.789063 30.097656 10.75 44.507812 1.292969 7.628907-5.007813 13.644532-11.671875 16.9375-18.769531 3.789063-8.167969 3.640626-16.398438-.414062-22.574219s-11.542969-9.59375-20.542969-9.363281c-7.824219.199218-16.335937 3.0625-23.964843 8.070312-17.109376 11.226563-24.371094 29.386719-16.523438 41.34375zm24.753906-28.804687c5.246094-3.441407 11.121094-5.488281 16.113282-5.613281.167968-.003907.332031-.007813.492187-.007813 3.453125 0 6.039063.9375 7.132813 2.605469 1.144531 1.742187.90625 4.667968-.652344 8.027344-2.101563 4.53125-6.316406 9.105468-11.5625 12.546874-5.246094 3.441407-11.117188 5.488282-16.109375 5.613282-3.714844.109375-6.480469-.855469-7.625-2.597656-2.351563-3.578126 1.238281-13.371094 12.210937-20.574219zm0 0"/><path d="m449.609375 282.199219c20.46875 0 36.5-11.199219 36.5-25.5 0-14.296875-16.03125-25.5-36.5-25.5s-36.5 11.203125-36.5 25.5c0 14.300781 16.03125 25.5 36.5 25.5zm0-36c13.125 0 21.5 6.21875 21.5 10.5s-8.375 10.5-21.5 10.5-21.5-6.21875-21.5-10.5 8.375-10.5 21.5-10.5zm0 0"/><path d="m182.226562 125.9375c12.382813-7.152344 14.066407-26.636719 3.832032-44.359375-10.234375-17.726563-27.953125-26.007813-40.332032-18.859375-6.402343 3.691406-10.238281 10.972656-10.523437 19.972656-.25 7.824219 2.125 16.484375 6.6875 24.386719 8.789063 15.222656 26.226563 27.007813 40.335937 18.859375zm-27.34375-26.363281c-3.140624-5.433594-4.847656-11.414063-4.6875-16.402344.117188-3.703125 1.222657-6.421875 3.027344-7.464844.625-.359375 1.414063-.542969 2.328125-.542969 4.515625 0 12.058594 4.457032 17.515625 13.910157 6.5625 11.367187 5.367188 21.730469 1.65625 23.871093-1.804687 1.042969-4.710937.640626-7.976562-1.109374-4.402344-2.355469-8.726563-6.824219-11.863282-12.261719zm0 0"/><path d="m329.773438 125.9375c14.304687 8.257812 31.710937-3.925781 40.335937-18.859375 8.726563-15.117187 10.347656-36.171875-3.835937-44.359375-12.382813-7.148438-30.097657 1.132812-40.332032 18.859375-10.234375 17.722656-8.546875 37.207031 3.832032 44.359375zm9.160156-36.863281c6.5625-11.363281 16.136718-15.511719 19.84375-13.367188 1.808594 1.042969 2.910156 3.761719 3.027344 7.464844.160156 4.988281-1.546876 10.96875-4.6875 16.402344-3.136719 5.4375-7.460938 9.90625-11.863282 12.261719-3.265625 1.75-6.171875 2.152343-7.980468 1.109374-3.707032-2.140624-4.902344-12.503906 1.660156-23.871093zm0 0"/></svg>